<svg xmlns="http://www.w3.org/2000/svg" xmlns:xlink="http://www.w3.org/1999/xlink" version="1.1" width="256" height="256" viewBox="0 0 256 256" xml:space="preserve">

<defs>
</defs>
<g style="stroke: none; stroke-width: 0; stroke-dasharray: none; stroke-linecap: butt; stroke-linejoin: miter; stroke-miterlimit: 10; fill: none; fill-rule: nonzero; opacity: 1;" transform="translate(1.4065934065934016 1.4065934065934016) scale(2.81 2.81)" >
	<path d="M 6.316 75.013 c 0.027 2.411 0.901 4.213 2.337 5.261 c 0.184 0.134 0.385 0.246 0.587 0.355 l -0.004 0.012 l 0.118 0.057 c 0.041 0.021 0.083 0.04 0.124 0.06 l 17.797 8.561 l 0.738 -0.428 c -0.423 -0.898 -0.671 -1.965 -0.685 -3.205 l -0.231 -20.726 l -0.209 -18.781 c -0.039 -3.497 1.713 -7.447 4.406 -10.581 L 9.962 25.318 c -2.508 3.068 -4.124 6.833 -4.086 10.187 l 0.209 18.781 L 6.316 75.013 z" style="stroke: none; stroke-width: 1; stroke-dasharray: none; stroke-linecap: butt; stroke-linejoin: miter; stroke-miterlimit: 10; fill: rgb(0,161,0); fill-rule: nonzero; opacity: 1;" transform=" matrix(1 0 0 1 0 0) " stroke-linecap="round" />
	<path d="M 62.715 0.538 L 62.71 0.546 c -1.846 -0.86 -4.335 -0.735 -7.07 0.595 L 15.923 20.457 c -2.24 1.089 -4.295 2.823 -5.961 4.861 c 0.9 7.946 6.189 11.544 18.007 8.677 c 1.606 -1.869 6.871 -1.846 8.967 -2.865 l 39.717 -19.316 c 1.36 -0.662 2.659 -1.021 3.85 -1.115 l 0.11 -1.536 L 62.715 0.538 z" style="stroke: none; stroke-width: 1; stroke-dasharray: none; stroke-linecap: butt; stroke-linejoin: miter; stroke-miterlimit: 10; fill: rgb(0,172,0); fill-rule: nonzero; opacity: 1;" transform=" matrix(1 0 0 1 0 0) " stroke-linecap="round" />
	<path d="M 73.938 9.789 L 34.119 28.713 c -5.626 2.674 -10.186 9.402 -10.186 15.028 V 62.67 v 2.006 V 83.56 c 0 5.626 4.561 8.019 10.186 5.345 l 13.736 -6.528 l 26.083 -12.396 c 5.626 -2.674 10.186 -9.402 10.186 -15.028 v 0 V 15.134 C 84.125 9.508 79.564 7.115 73.938 9.789 z" style="stroke: none; stroke-width: 1; stroke-dasharray: none; stroke-linecap: butt; stroke-linejoin: miter; stroke-miterlimit: 10; fill: rgb(0,185,0); fill-rule: nonzero; opacity: 1;" transform=" matrix(1 0 0 1 0 0) " stroke-linecap="round" />
	<path d="M 72.421 38.007 c 0 -8.23 -8.25 -11.005 -18.392 -6.185 C 43.888 36.642 35.637 47.259 35.637 55.49 c 0 7.378 6.543 10.448 15.381 7.415 c 0.599 -0.156 1.414 -0.278 1.62 0.137 c 0.186 0.376 0.121 1.136 0.059 1.635 c 0 0 -0.216 1.4 -0.263 1.699 c -0.08 0.503 -0.369 1.994 1.593 0.234 c 1.963 -1.76 10.592 -11.271 14.451 -17.546 l -0.001 0.001 C 71.144 44.875 72.421 41.302 72.421 38.007 z M 47.539 54.228 c 0 0.198 -0.16 0.434 -0.358 0.528 l -5.154 2.449 l -0.001 0 c -0.097 0.046 -0.183 0.049 -0.248 0.018 c -0.002 -0.001 -0.003 -0.002 -0.005 -0.003 c -0.002 -0.001 -0.003 -0.002 -0.005 -0.003 c -0.062 -0.035 -0.1 -0.104 -0.1 -0.2 v -0.001 v -8.013 c 0 -0.198 0.161 -0.434 0.358 -0.528 l 1.29 -0.613 c 0.198 -0.094 0.358 -0.01 0.358 0.188 v 6.364 l 3.505 -1.666 c 0.198 -0.094 0.358 -0.01 0.358 0.189 V 54.228 z M 50.65 52.749 c 0 0.198 -0.161 0.434 -0.358 0.528 l -1.29 0.613 c -0.198 0.094 -0.358 0.01 -0.358 -0.187 v -8.014 c 0 -0.197 0.161 -0.434 0.358 -0.528 l 1.29 -0.613 c 0.198 -0.094 0.358 -0.01 0.358 0.187 V 52.749 z M 59.529 48.53 c 0 0.198 -0.16 0.434 -0.358 0.528 l -1.29 0.613 c -0.031 0.015 -0.062 0.025 -0.091 0.031 c -0.002 0.001 -0.003 0.001 -0.005 0.001 c -0.008 0.001 -0.016 0.002 -0.024 0.004 c -0.004 0.001 -0.007 0.001 -0.011 0.001 c -0.006 0.001 -0.012 0.001 -0.017 0.001 c -0.006 0 -0.012 0 -0.017 0 c -0.003 0 -0.007 0 -0.01 -0.001 c -0.007 0 -0.015 -0.002 -0.022 -0.003 c -0.001 -0.001 -0.003 0 -0.004 -0.001 c -0.034 -0.007 -0.066 -0.021 -0.091 -0.045 l -3.677 -3.219 v 4.76 c 0 0.198 -0.161 0.434 -0.359 0.528 l -1.29 0.613 c -0.198 0.094 -0.358 0.01 -0.358 -0.187 V 44.14 c 0 -0.197 0.161 -0.434 0.358 -0.528 l 1.29 -0.613 c 0.004 -0.002 0.008 -0.003 0.012 -0.005 c 0.006 -0.003 0.012 -0.005 0.019 -0.008 c 0.007 -0.003 0.013 -0.005 0.019 -0.007 c 0.005 -0.002 0.01 -0.004 0.015 -0.005 c 0.007 -0.002 0.014 -0.004 0.021 -0.005 c 0.004 -0.001 0.008 -0.002 0.012 -0.003 c 0.007 -0.002 0.015 -0.003 0.021 -0.003 c 0.004 -0.001 0.008 -0.001 0.012 -0.002 c 0.007 -0.001 0.014 0 0.021 -0.001 c 0.004 0 0.007 0 0.011 0 c 0.006 0 0.013 0.001 0.019 0.002 c 0.004 0 0.007 0 0.011 0.001 c 0.006 0.001 0.012 0.003 0.019 0.004 c 0.003 0.001 0.007 0.001 0.01 0.003 c 0.007 0.001 0.013 0.004 0.019 0.007 c 0.002 0.001 0.004 0.002 0.007 0.003 c 0.007 0.003 0.015 0.007 0.021 0.012 c 0.001 0 0.001 0.001 0.002 0.001 c 0.01 0.007 0.02 0.014 0.028 0.023 l 3.672 3.214 v -4.761 c 0 -0.197 0.16 -0.434 0.358 -0.528 l 1.29 -0.613 c 0.198 -0.094 0.359 -0.01 0.358 0.188 V 48.53 z M 66.653 41.781 c 0 0.198 -0.16 0.434 -0.358 0.528 l -3.505 1.666 v 1.355 l 3.505 -1.666 c 0.198 -0.094 0.358 -0.009 0.358 0.188 v 1.29 c 0 0.198 -0.16 0.434 -0.358 0.528 l -5.154 2.449 l -0.001 0 c -0.097 0.046 -0.184 0.049 -0.248 0.018 c -0.002 0 -0.003 -0.001 -0.005 -0.002 c -0.002 -0.001 -0.003 -0.002 -0.005 -0.003 c -0.062 -0.035 -0.1 -0.104 -0.1 -0.2 v -0.001 V 39.92 V 39.92 c 0 -0.096 0.038 -0.201 0.099 -0.294 c 0.002 -0.002 0.003 -0.006 0.006 -0.009 c 0.001 -0.002 0.003 -0.004 0.004 -0.006 c 0.065 -0.093 0.152 -0.173 0.249 -0.219 l 0.001 0 l 5.154 -2.449 c 0.198 -0.094 0.358 -0.009 0.358 0.189 v 1.29 c 0 0.198 -0.16 0.434 -0.358 0.528 l -3.505 1.666 v 1.354 l 3.505 -1.666 c 0.198 -0.094 0.358 -0.009 0.358 0.189 V 41.781 z" style="stroke: none; stroke-width: 1; stroke-dasharray: none; stroke-linecap: butt; stroke-linejoin: miter; stroke-miterlimit: 10; fill: rgb(255,255,255); fill-rule: nonzero; opacity: 1;" transform=" matrix(1 0 0 1 0 0) " stroke-linecap="round" />
</g>
</svg>