<?xml version="1.0" encoding="utf-8" ?>
<svg xmlns="http://www.w3.org/2000/svg" xmlns:xlink="http://www.w3.org/1999/xlink" width="1024" height="1024">
	<path fill="#05123D" d="M916.999 668.086C917.199 668.121 917.4 668.15 917.599 668.19C920.24 668.727 923.117 669.783 924.483 672.328C925.114 673.503 925.324 674.598 924.804 675.863C924.221 677.286 923.007 678.289 921.77 679.125C915.181 683.576 907.286 686.884 900.184 690.459C888.272 696.455 875.885 703.556 863.27 707.8C860.73 707.353 857.332 706.41 855.823 704.11C855.045 702.924 855.297 702.159 855.489 700.86C858.625 696.131 908.322 672.364 916.999 668.086Z"/>
	<path fill="#0F2F91" d="M600.381 114.658C609.085 117.989 620.409 122.902 624.437 132.035C625.987 135.548 626.103 140.982 626.242 144.783C626.565 153.558 626.178 162.425 626.087 171.205L625.961 210.364L626.031 245.143C626.07 252.467 626.417 259.879 625.924 267.19C625.656 271.164 624.739 274.863 623.124 278.508C616.881 292.607 598.796 299.636 585.331 305.048C584.608 304.049 583.969 302.96 583.298 301.924C583.84 301.795 584.37 301.473 584.871 301.221C593.515 296.885 617.23 286.579 620.072 277.325C623.283 266.869 622.024 254.359 622.016 243.522L622.045 209.5C622.224 186.328 623.907 162.844 621.972 139.72C621.728 136.808 621.332 135.036 619.891 132.458C615.273 125.097 607.09 121.376 599.066 118.784C590.815 122.615 582.802 127.122 574.753 131.369Q552.09 143.15 529.815 155.649L464.82 190.913Q446.065 201.129 427.188 211.115C420.799 214.512 413.244 217.699 407.508 222.046C403.977 224.722 400.585 231.448 398.872 235.524C398.504 236.399 398.219 236.62 397.445 237.128C397.786 231.001 398.522 225.169 403.356 220.782C409.683 215.041 419.628 211.044 427.22 207.041Q441.133 199.678 454.929 192.099L538.683 146.588C554.869 137.767 570.944 128.536 587.352 120.144C591.543 118 595.814 115.868 600.381 114.658Z"/>
	<path fill="#F761AE" d="M113.943 422.822Q115.562 421.41 117.325 420.182C125.382 414.602 134.364 410.281 143.029 405.744L182.183 385.211C193.239 379.289 206.947 369.436 218.533 365.839C221.899 364.793 225.344 365.619 228.72 366.213C233.886 367.589 238.837 370.234 243.587 372.637L174.395 410.571C163.234 416.662 151.317 422.034 140.534 428.685C137.336 430.657 134.302 432.684 131.851 435.582Q129.887 433.64 127.774 431.862Q125.66 430.083 123.411 428.481Q121.162 426.878 118.791 425.461Q116.42 424.044 113.943 422.822Z"/>
	<path fill="#284ACB" d="M840.793 659.781C859.607 649.825 878.658 640.361 897.522 630.511C907.298 625.406 916.76 619.724 926.701 614.933C926.239 625.369 927.114 635.969 926.144 646.358C914.099 653.438 901.42 659.464 888.916 665.678L839.991 689.996C840.144 680.448 838.632 669.03 840.793 659.781Z"/>
	<defs>
		<linearGradient id="gradient_0" gradientUnits="userSpaceOnUse" x1="87.317986" y1="502.01282" x2="146.36105" y2="481.02328">
			<stop offset="0" stop-color="#9B2785"/>
			<stop offset="1" stop-color="#CA3D8E"/>
		</linearGradient>
	</defs>
	<path fill="url(#gradient_0)" d="M113.943 422.822Q116.42 424.044 118.791 425.461Q121.162 426.878 123.411 428.481Q125.66 430.083 127.774 431.862Q129.887 433.64 131.851 435.582C126.838 442.27 122.235 448.713 120.146 456.959C116.625 470.851 118.968 486.912 118.944 501.101C118.919 515.569 117.407 530.907 119.578 545.26C120.637 552.265 124.142 556.056 128.907 560.827C120.65 557.877 110.629 553.994 104.373 547.587C101.658 544.807 99.7628 540.175 99.0524 536.428C97.4564 528.01 98.4729 515.111 98.4731 506.267L98.1334 463.196C98.1539 446.008 101.574 435.13 113.943 422.822Z"/>
	<path fill="#39B5F4" d="M228.72 366.213Q229.301 364.906 229.964 363.639C232.834 358.208 237.428 353.194 242.356 349.554C248.17 345.261 255.111 342.017 261.508 338.678Q272.321 333.048 282.97 327.114L319.702 306.74C329.845 300.986 340.851 292.736 352.17 289.709C359.426 287.769 370.964 294.231 377.058 297.566C374 298.47 370.483 298.956 367.596 300.248C354.918 305.922 341.959 315.147 329.535 321.888Q312.01 331.433 294.375 340.772C286.128 345.063 277.351 348.827 269.696 354.126C264.848 357.482 260.985 361.209 258.137 366.419Q257.391 367.76 256.771 369.164Q256.151 370.568 255.661 372.022Q255.171 373.477 254.816 374.97Q254.461 376.463 254.243 377.982C250.822 375.888 247.279 374.191 243.587 372.637C238.837 370.234 233.886 367.589 228.72 366.213Z"/>
	<path fill="#059A5A" d="M699.383 299.045C697.689 297.943 695.999 296.818 694.398 295.584C689.262 291.623 686.408 286.099 685.619 279.718C684.413 269.969 685.826 259.489 685.899 249.644C686.004 235.331 684.124 208.948 686.947 196.017C688.638 188.268 692.261 181.331 697.134 175.116C699.989 171.475 703.155 168.27 706.996 165.676C717.524 158.565 729.3 153.373 740.446 147.343C751.897 141.149 788.177 119.147 798.957 118.27C807.422 117.581 817.042 125.423 822.959 130.694C818.07 130.117 814.474 130.272 809.81 131.925C798.829 135.818 787.983 142.943 777.619 148.35Q759.756 157.603 742.012 167.084C735.365 170.62 727.946 173.86 722.021 178.53C712.337 186.162 706.548 197.544 705.227 209.697C703.582 224.828 704.462 239.748 704.391 254.891C704.343 265.365 703.068 276.113 704.814 286.502C705.496 290.559 707.105 294.774 709.709 297.988C711.023 299.609 712.559 300.837 714.531 301.534C709.065 301.802 704.487 301.041 699.383 299.045Z"/>
	<path fill="#284ACB" d="M98.8104 768.77C98.1032 760.986 98.5093 752.906 98.5328 745.088L98.5895 706.3L98.4767 655.968C98.4263 646.065 98.0142 636.022 98.5117 626.131C98.6035 624.308 98.8308 623.235 99.8746 621.728C106.94 627.828 126.22 634.503 131.204 639.848C131.764 640.448 131.694 641.105 131.818 641.882C130.167 653.627 131.604 665.228 131.629 677.003L132.006 756.561C132.01 765.453 132.978 777.385 131.586 785.926C131.454 785.969 131.327 786.031 131.191 786.055C126.396 786.904 103.749 772.145 98.8104 768.77Z"/>
	<path fill="#029290" d="M411.046 784.549C411.023 777.618 410.694 770.304 412.133 763.5C419.729 768.738 427.929 773.104 435.947 777.659C445.529 783.104 455.074 788.651 464.745 793.935C473.252 798.583 482.349 802.675 490.057 808.606L491.928 810.366C490.997 833.183 491.479 855.628 491.871 878.44C492.037 888.103 491.592 897.891 492.055 907.53C486.412 906.191 420.527 869.41 415.592 865.048C413.414 863.122 412.448 861.64 411.871 858.786C410.279 850.924 411.302 841.801 411.376 833.757C411.526 817.387 411.963 800.9 411.046 784.549Z"/>
	<path fill="#F761AE" d="M804.508 596.195C814.393 591.328 838.014 577.705 847.934 576.58C850.418 576.298 853.041 577.038 855.379 577.824C865.586 581.256 875.54 587.338 885.18 592.2C896.345 597.833 918.026 606.938 926.701 614.933C916.76 619.724 907.298 625.406 897.522 630.511C878.658 640.361 859.607 649.825 840.793 659.781C838.632 669.03 840.144 680.448 839.991 689.996C830.961 686.792 822.073 680.314 813.671 675.64C802.786 669.587 791.631 664.114 780.841 657.864C780.355 652.239 780.702 646.512 780.67 640.866C779.809 636.272 778.878 631.806 777.164 627.443C775.338 623.601 764.624 620.096 760.679 618.429L790.246 603.63C794.854 601.323 800.373 599.229 804.508 596.195Z"/>
	<path fill="#05123D" d="M777.164 627.443C778.513 627.139 779.448 627.654 780.663 628.191C789.426 632.056 798.04 637.579 806.586 642.002C817.85 647.833 830.088 653.035 840.793 659.781C838.632 669.03 840.144 680.448 839.991 689.996C830.961 686.792 822.073 680.314 813.671 675.64C802.786 669.587 791.631 664.114 780.841 657.864C780.355 652.239 780.702 646.512 780.67 640.866C779.809 636.272 778.878 631.806 777.164 627.443Z"/>
	<path fill="#1EDFDC" d="M491.928 810.366C503.484 807.175 514.541 800.442 525.356 795.285C548.778 784.118 572.245 773.143 595.195 761.014C594.3 782.518 595.028 804.388 595.039 825.919C595.079 832.686 596.452 850.919 592.674 855.898C588.455 861.456 539.786 883.646 530.655 888.202C517.799 894.617 505.15 901.611 492.055 907.53C491.592 897.891 492.037 888.103 491.871 878.44C491.479 855.628 490.997 833.183 491.928 810.366Z"/>
	<path fill="#FEFEFE" d="M573.428 826.948L574.475 827.285C576.229 832.064 574.784 840.378 574.511 845.52C553.565 856.533 532.068 866.288 511.019 877.064L510.384 876.607C508.701 871.509 509.815 864.194 510.019 858.839C517.557 854.651 525.586 851.071 533.308 847.214L573.428 826.948Z"/>
	<path fill="#FEFEFE" d="M573.789 799.991C575.822 803.546 574.669 814.67 574.547 819.03C553.725 830.462 531.757 840.242 510.395 850.652C509.302 844.871 509.809 838.879 510.012 833.034Q525.924 823.57 542.464 815.253C552.856 810.057 563.494 805.385 573.789 799.991Z"/>
	<path fill="#456EE4" d="M780.67 640.866C780.702 646.512 780.355 652.239 780.841 657.864C779.621 668.971 780.486 680.738 780.496 691.933L780.526 757.961C780.534 767.983 781.76 779.453 779.834 789.244C772.142 796.201 732.858 814.457 721.209 819.45C717.863 817.976 714.756 816.254 711.603 814.404C712.337 804.955 711.939 795.135 711.977 785.652L711.953 729.411C710.903 717.728 711.59 705.815 711.962 694.11Q715.889 692.247 719.843 690.443C717.336 686.361 718.946 677.581 719.31 672.837C730.037 666.798 741.372 660.922 752.47 655.599C762.079 650.99 771.892 647.022 780.67 640.866Z"/>
	<path fill="#0F2F91" d="M719.843 690.443C721.984 694.125 720.974 782.799 720.969 794.534C720.965 801.732 720.098 812.768 721.209 819.45C717.863 817.976 714.756 816.254 711.603 814.404C712.337 804.955 711.939 795.135 711.977 785.652L711.953 729.411C710.903 717.728 711.59 705.815 711.962 694.11Q715.889 692.247 719.843 690.443Z"/>
	<path fill="#F9C03C" d="M711.962 694.11C711.59 705.815 710.903 717.728 711.953 729.411L711.977 785.652C711.939 795.135 712.337 804.955 711.603 814.404Q711.504 819.382 711.528 824.36C704.374 828.942 696.318 832.376 688.681 836.099Q672.168 844.186 655.832 852.625C653.188 853.96 650.338 854.968 647.736 856.32C641.018 853.572 634.71 849.283 628.478 845.591L595.039 825.919C595.028 804.388 594.3 782.518 595.195 761.014C594.935 760.123 594.441 759.362 593.99 758.555L588.044 754.633C587.718 748.483 587.132 734.805 590.068 729.412C590.564 728.5 590.777 728.694 591.719 728.448C598.131 733.451 605.313 737.047 612.359 741.044C623.824 747.548 635.585 754.078 646.676 761.186C647.161 760.099 647.662 701.45 647.892 694.305C656.035 698.011 670.922 709.159 678.755 709.871C682.339 707.929 686.412 706.422 690.127 704.682Q701.09 699.491 711.962 694.11Z"/>
	<path fill="#456EE4" d="M711.962 694.11C711.59 705.815 710.903 717.728 711.953 729.411C703.363 733.955 651.949 761.079 646.997 761.815L646.676 761.186C647.161 760.099 647.662 701.45 647.892 694.305C656.035 698.011 670.922 709.159 678.755 709.871C682.339 707.929 686.412 706.422 690.127 704.682Q701.09 699.491 711.962 694.11Z"/>
	<path fill="#D07814" d="M588.044 754.633C587.718 748.483 587.132 734.805 590.068 729.412C590.564 728.5 590.777 728.694 591.719 728.448C598.131 733.451 605.313 737.047 612.359 741.044C623.824 747.548 635.585 754.078 646.676 761.186L646.997 761.815C649.394 772.23 647.614 785.981 647.713 796.815Q648.035 816.98 648.026 837.148C648.025 843.4 648.452 850.118 647.736 856.32C641.018 853.572 634.71 849.283 628.478 845.591L595.039 825.919C595.028 804.388 594.3 782.518 595.195 761.014C594.935 760.123 594.441 759.362 593.99 758.555L588.044 754.633Z"/>
	<path fill="#758FF0" d="M219.351 557.773C226.464 561.356 248.631 571.144 252.825 577.292C251.629 587.179 252.459 597.911 252.553 607.902C236.443 617.04 219.852 625.424 203.626 634.387C190.932 641.399 178.05 649.935 164.578 655.197L165.035 657.081C172.9 660.509 180.393 665.058 187.846 669.283C188.486 689.753 187.981 710.364 187.973 730.849C187.967 745.6 189.123 761.25 186.903 775.838C179.813 772.708 172.872 767.78 165.445 765.641C164.865 768.482 163.798 769.169 161.403 770.751C152.231 776.809 141.338 780.804 131.586 785.926C132.978 777.385 132.01 765.453 132.006 756.561L131.629 677.003C131.604 665.228 130.167 653.627 131.818 641.882C131.694 641.105 131.764 640.448 131.204 639.848C126.22 634.503 106.94 627.828 99.8746 621.728C110.383 613.869 124.011 608.586 135.603 602.346C154.008 592.439 172.126 581.262 190.985 572.301C195.926 570.259 200.608 567.75 205.162 564.957C209.777 562.317 214.368 559.675 219.351 557.773Z"/>
	<path fill="#456EE4" d="M158.663 656.927C160.637 656.123 162.484 655.595 164.578 655.197L165.035 657.081L164.32 722.25C164.136 736.571 163.131 751.284 164.7 765.528C164.365 766.746 164.62 766.162 163.912 767.27C162.084 767.599 160.115 766.338 158.48 765.59L158.663 656.927Z"/>
	<path fill="#D07814" d="M165.035 657.081C172.9 660.509 180.393 665.058 187.846 669.283C188.486 689.753 187.981 710.364 187.973 730.849C187.967 745.6 189.123 761.25 186.903 775.838C179.813 772.708 172.872 767.78 165.445 765.641L164.7 765.528C163.131 751.284 164.136 736.571 164.32 722.25L165.035 657.081Z"/>
	<path fill="#456EE4" d="M219.351 557.773C226.464 561.356 248.631 571.144 252.825 577.292C240.14 582.923 228.074 590.306 215.847 596.888Q191.912 609.789 167.645 622.054C155.846 628.083 144.426 634.126 132.315 639.505L131.818 641.882C131.694 641.105 131.764 640.448 131.204 639.848C126.22 634.503 106.94 627.828 99.8746 621.728C110.383 613.869 124.011 608.586 135.603 602.346C154.008 592.439 172.126 581.262 190.985 572.301C195.926 570.259 200.608 567.75 205.162 564.957C209.777 562.317 214.368 559.675 219.351 557.773Z"/>
	<path fill="#37F0A4" d="M714.531 301.534C712.559 300.837 711.023 299.609 709.709 297.988C707.105 294.774 705.496 290.559 704.814 286.502C703.068 276.113 704.343 265.365 704.391 254.891C704.462 239.748 703.582 224.828 705.227 209.697C706.548 197.544 712.337 186.162 722.021 178.53C727.946 173.86 735.365 170.62 742.012 167.084Q759.756 157.604 777.619 148.35C787.983 142.943 798.829 135.818 809.81 131.925C814.474 130.272 818.07 130.117 822.959 130.694C829.435 136.062 831.895 141.071 832.678 149.375C833.36 156.618 832.981 164.1 832.917 171.373L832.584 206.327C832.531 211.511 831.482 218.854 832.845 223.776C831.548 233.449 829.591 241.42 821.283 247.642C812.516 254.209 798.791 259.492 788.68 264.14C788.851 269.985 789.004 275.797 788.813 281.644C788.165 288.647 786.958 296.202 781.19 300.959C778.656 303.049 775.648 304.273 772.526 305.182C766.444 307.807 759.35 305.249 753.507 303.223C751.917 301.663 750.574 300.126 749.537 298.133C747.208 293.659 747.345 289.362 748.817 284.66C737.013 289.563 726.654 296.972 714.531 301.534Z"/>
	<path fill="#0F2F91" d="M734.237 238.961C737.85 233.614 745.692 223.567 752.252 222.17C754.079 221.781 754.821 222.551 756.202 223.5C750.796 228.367 745.602 233.299 741.023 238.978C749.358 245.165 758.603 251.298 765.94 258.631C753.424 255.971 743.797 246.881 734.237 238.961Z"/>
	<path fill="#07794C" d="M756.956 280.982C757.248 287.829 757.674 293.863 762.983 298.894C765.765 301.53 769.122 303.47 772.526 305.182C766.444 307.807 759.35 305.249 753.507 303.223C751.917 301.663 750.574 300.126 749.537 298.133C747.208 293.659 747.345 289.362 748.817 284.66L756.956 280.982Z"/>
	<path fill="#456EE4" d="M763.853 229.75L764.136 229.012C767.572 220.172 772.16 211.813 776.113 203.196C781.448 191.567 786.213 178.874 793.038 168.054C794.447 165.82 796.372 163.002 798.941 162.012C801.461 161.042 803.43 162.019 805.735 163.084C807.779 164.557 809.798 165.965 811.603 167.734Q799.689 193.433 788.195 219.323C783.075 231.016 778.602 244.316 771.602 254.986C770.548 256.593 769.595 257.461 767.796 258.138C767.152 258.38 766.619 258.513 765.94 258.631C758.603 251.298 749.358 245.165 741.023 238.978C745.602 233.299 750.796 228.367 756.202 223.5L763.853 229.75Z"/>
	<path fill="#0F2F91" d="M763.853 229.75L764.136 229.012C767.572 220.172 772.16 211.813 776.113 203.196C781.448 191.567 786.213 178.874 793.038 168.054C794.447 165.82 796.372 163.002 798.941 162.012C801.461 161.042 803.43 162.019 805.735 163.084C804.166 163.856 802.719 164.59 801.568 165.941C797.546 170.659 794.965 177.08 792.272 182.621Q785.657 196.033 779.535 209.677C776.082 217.366 772.876 225.489 768.517 232.722L763.853 229.75Z"/>
	<defs>
		<linearGradient id="gradient_1" gradientUnits="userSpaceOnUse" x1="120.14094" y1="459.41785" x2="258.33652" y2="477.41614">
			<stop offset="0" stop-color="#FF83BF"/>
			<stop offset="1" stop-color="#F2ACDD"/>
		</linearGradient>
	</defs>
	<path fill="url(#gradient_1)" d="M243.587 372.637C247.279 374.191 250.822 375.888 254.243 377.982C256.488 381.143 257.614 383.88 258.281 387.711C259.565 395.076 258.993 403.047 258.966 410.52L258.843 452.599C258.855 460.331 258.458 468.482 259.423 476.145C258.098 490.361 253.885 500.485 242.714 509.814C232.06 518.712 217.755 525.21 204.901 530.361C204.743 541.878 204.439 553.455 205.162 564.957C200.608 567.75 195.926 570.259 190.985 572.301L184.766 569.456C176.878 565.49 171.701 561.362 166.585 554.125C155.143 560.101 144.532 565.538 131.34 561.719C130.509 561.479 129.703 561.164 128.907 560.827C124.142 556.056 120.637 552.265 119.578 545.26C117.407 530.907 118.919 515.569 118.944 501.101C118.968 486.912 116.625 470.851 120.146 456.959C122.235 448.713 126.838 442.27 131.851 435.582C134.302 432.684 137.336 430.657 140.534 428.685C151.317 422.034 163.234 416.662 174.395 410.571L243.587 372.637Z"/>
	<path fill="#010001" d="M171.873 527.609C171.256 528.46 171.182 528.577 170.169 529.019C169.872 528.464 169.82 528.43 169.635 527.72C168.711 524.157 169.503 519.154 169.43 515.379C168.955 490.781 168.577 463.639 169.447 439.189C169.518 437.2 169.357 435.005 170.292 433.21C172.997 440.998 171.272 452.21 171.077 460.442C170.844 470.295 169.711 522.977 171.873 527.609Z"/>
	<path fill="#F761AE" d="M166.585 554.125C168.687 553.232 170.598 551.525 172.579 550.348C176.484 548.028 180.481 546.069 184.654 544.284C184.484 552.125 185.293 562.153 184.766 569.456C176.878 565.49 171.701 561.362 166.585 554.125Z"/>
	<path fill="#05123D" d="M170.292 433.21C188.592 441.23 207.935 446.08 226.713 452.765L191.868 500.387C185.299 509.431 178.978 519 171.873 527.609C169.711 522.977 170.844 470.295 171.077 460.442C171.272 452.21 172.997 440.998 170.292 433.21Z"/>
	<path fill="#F9C03C" d="M301.242 583.887Q312.002 590.87 323.428 596.699C325.426 597.74 326.784 598.549 327.485 600.787C327.809 601.819 327.956 602.881 328.097 603.949C329.715 606.951 330.051 608.853 330.076 612.215C330.089 628.583 329.473 644.947 329.485 661.297C329.493 672.302 330.29 683.363 329.979 694.354C329.436 695.583 329.163 696.343 328.068 697.184C327.932 699.434 327.466 700.379 325.755 701.856C319.314 707.41 310.619 709.71 303.325 713.822C300.475 725.948 298.579 738.416 296.384 750.679C295.586 755.138 295.232 760.005 294.002 764.341C291.235 772.555 290.676 781.18 286.354 788.858C282.123 787.13 278.387 785.091 274.972 782.021C267.554 775.351 253.18 753.711 247.438 744.399C240.173 750.098 229.856 754.086 221.601 758.247C210.037 764.075 198.588 770.269 186.903 775.838C189.123 761.25 187.967 745.6 187.973 730.849C187.981 710.364 188.486 689.753 187.846 669.283C180.393 665.058 172.9 660.509 165.035 657.081L164.578 655.197C178.05 649.935 190.932 641.399 203.626 634.387C219.852 625.424 236.443 617.04 252.553 607.902C256.734 606.081 260.799 603.58 264.86 601.473C275.014 596.207 285.137 590.825 295.443 585.863L301.242 583.887Z"/>
	<path fill="#010001" d="M328.097 603.949C329.715 606.951 330.051 608.853 330.076 612.215C330.089 628.583 329.473 644.947 329.485 661.297C329.493 672.302 330.29 683.363 329.979 694.354C329.436 695.583 329.163 696.343 328.068 697.184Q327.238 650.566 328.097 603.949Z"/>
	<path fill="#D07814" d="M247.438 744.399Q250.415 741.299 253.451 738.257Q261.104 750.767 269.392 762.866C274.359 770.103 283.422 781.136 286.354 788.858C282.123 787.13 278.387 785.091 274.972 782.021C267.554 775.351 253.18 753.711 247.438 744.399Z"/>
	<path fill="#FEFEFE" d="M309.857 625.499C310.821 625.451 311.86 625.37 312.803 625.614Q313.296 625.742 313.756 625.962Q314.215 626.182 314.624 626.486Q315.032 626.79 315.375 627.167Q315.717 627.544 315.981 627.98C316.927 629.566 316.988 631.381 316.417 633.113C315.666 635.394 314.055 636.98 312.134 638.318C307.648 641.445 302.413 643.927 297.585 646.5L274.14 659.034C253.284 670.329 232.814 682.363 211.728 693.226C211.074 693.362 209.941 693.597 209.258 693.466C207.887 693.202 207.03 692.283 206.32 691.136C205.305 689.495 205.283 687.342 205.837 685.547C206.915 682.048 210.15 679.778 213.068 677.843C218.955 673.94 225.521 670.892 231.789 667.644L262.414 651.762C278.428 643.331 293.681 633.689 309.857 625.499Z"/>
	<path fill="#FEFEFE" d="M310.488 650.408C311.111 650.52 311.751 650.688 312.349 650.894C314.078 651.49 315.485 653.012 316.252 654.646Q316.377 654.916 316.473 655.198Q316.569 655.479 316.634 655.77Q316.699 656.06 316.733 656.356Q316.767 656.651 316.769 656.949Q316.771 657.246 316.742 657.542Q316.712 657.838 316.652 658.13Q316.591 658.421 316.499 658.704Q316.408 658.987 316.287 659.259C315.346 661.421 312.93 662.747 311.011 663.952C292.866 675.343 273.047 684.324 254.17 694.434C239.983 702.031 226.327 711.04 211.552 717.46C210.511 717.537 209.284 717.629 208.273 717.313C206.97 716.907 205.922 715.808 205.303 714.636C204.479 713.073 204.782 710.67 205.393 709.084C206.379 706.525 210.342 704.264 212.609 702.839C222.469 696.643 233.511 691.705 243.756 686.124C265.941 674.038 287.95 661.837 310.488 650.408Z"/>
	<path fill="#FEFEFE" d="M311 674.429C311.157 674.464 311.314 674.497 311.47 674.534C313.919 675.111 316.371 676.232 317.639 678.55C318.287 679.733 318.415 681.022 317.981 682.299C317.161 684.713 315.138 685.889 313.103 687.194C297.117 697.448 279.399 705.365 262.746 714.499C245.878 723.751 229.418 734.384 212.133 742.795C211.97 742.876 211.813 742.971 211.645 743.039C210.055 743.683 208.681 743.365 207.142 742.841C206.591 742.338 206.096 741.887 205.808 741.176C204.93 739.006 205.379 736.441 206.239 734.339C207.327 731.68 209.309 729.583 211.643 727.96C215.357 725.376 219.801 723.277 223.781 721.093C234.99 714.942 246.461 709.293 257.717 703.232Q272.924 694.976 288.039 686.551C295.588 682.331 303.04 677.839 311 674.429Z"/>
	<path fill="#FA8F1A" d="M301.242 583.887Q312.002 590.87 323.428 596.699C304.225 607.796 284.198 617.578 264.513 627.781C248.335 636.167 232.36 645.068 216.323 653.731C207.691 658.394 194.946 663.003 187.846 669.283C180.393 665.058 172.9 660.509 165.035 657.081L164.578 655.197C178.05 649.935 190.932 641.399 203.626 634.387C219.852 625.424 236.443 617.04 252.553 607.902C256.734 606.081 260.799 603.58 264.86 601.473C275.014 596.207 285.137 590.825 295.443 585.863L301.242 583.887Z"/>
	<defs>
		<linearGradient id="gradient_2" gradientUnits="userSpaceOnUse" x1="506.81454" y1="761.27582" x2="400.38348" y2="450.38159">
			<stop offset="0" stop-color="#0A1C4D"/>
			<stop offset="1" stop-color="#2A51AC"/>
		</linearGradient>
	</defs>
	<path fill="url(#gradient_2)" d="M548.214 372.966C553.021 375.635 565.702 387.162 568.849 391.826C571.856 395.971 576.639 399.397 580.589 402.648L581.025 402.584C581.626 402.977 581.463 402.734 581.659 403.19C581.443 403.343 581.228 403.498 581.009 403.649C576.098 407.033 569.652 409.535 564.254 412.258L526.974 431.013L397.827 496.384C391.06 499.855 384.338 503.469 377.489 506.772C370.446 510.17 362.196 513.032 356.036 517.887C351.43 521.517 348.014 529.105 346.802 534.77C344.668 544.742 345.872 558.726 345.998 569.085L346.106 608.644L347.1 743.223C347.261 765.43 346.712 787.695 347.203 809.89C347.251 812.057 347.161 813.963 348.38 815.854C348.519 816.069 348.675 816.271 348.823 816.479C347.892 816.967 346.899 817.414 345.896 817.733C340.138 819.568 333.562 815.071 328.675 812.427C318.238 807.091 303.233 800.942 294.781 793.093C292.107 784.054 294.116 773.679 294.002 764.341C295.232 760.005 295.586 755.138 296.384 750.679C298.579 738.416 300.475 725.948 303.325 713.822C310.619 709.71 319.314 707.41 325.755 701.856C327.466 700.379 327.932 699.434 328.068 697.184C329.163 696.343 329.436 695.583 329.979 694.354C330.29 683.363 329.493 672.302 329.485 661.297C329.473 644.947 330.089 628.583 330.076 612.215C330.051 608.853 329.715 606.951 328.097 603.949C327.956 602.881 327.809 601.819 327.485 600.787C326.784 598.549 325.426 597.74 323.428 596.699Q312.002 590.87 301.242 583.887L295.443 585.863C285.137 590.825 275.014 596.207 264.86 601.473C260.799 603.58 256.734 606.081 252.553 607.902C252.459 597.911 251.629 587.179 252.825 577.292C248.631 571.144 226.464 561.356 219.351 557.773C214.368 559.675 209.777 562.317 205.162 564.957C204.439 553.455 204.743 541.878 204.901 530.361C217.755 525.21 232.06 518.712 242.714 509.814C253.885 500.485 258.098 490.361 259.423 476.145C261.414 477.048 263.616 478.015 265.782 478.354C267.766 478.665 269.543 478.373 271.428 477.742C280.714 474.632 289.108 468.995 297.791 464.568C304.847 460.971 312.49 458.01 319.045 453.543C324.273 462.214 329.356 470.905 333.397 480.209C341.416 486.947 351.613 490.443 360.791 495.279L362.177 497.144C362.917 497.115 363.582 497.012 364.303 496.836C366.7 496.249 368.834 495.683 370.18 493.532C367.275 484.697 363.789 476.112 361.142 467.18L482.766 405.567L525.241 384.35C532.897 380.574 540.836 377.267 548.214 372.966Z"/>
	<path fill="#05123D" d="M328.068 697.184C329.163 696.343 329.436 695.583 329.979 694.354C330.952 712.961 329.939 732.102 329.913 750.757C329.888 769.299 330.861 788.228 329.89 806.723C329.785 808.726 329.474 810.578 328.675 812.427C318.238 807.091 303.233 800.942 294.781 793.093C292.107 784.054 294.116 773.679 294.002 764.341C295.232 760.005 295.586 755.138 296.384 750.679C298.579 738.416 300.475 725.948 303.325 713.822C310.619 709.71 319.314 707.41 325.755 701.856C327.466 700.379 327.932 699.434 328.068 697.184Z"/>
	<path fill="#05123D" d="M333.397 480.209C341.416 486.947 351.613 490.443 360.791 495.279L362.177 497.144C347.588 504.366 337.77 508.019 332.11 524.457C327.427 538.058 329.284 574.325 329.955 590.239C330.251 597.256 331.228 605.293 330.076 612.215C330.051 608.853 329.715 606.951 328.097 603.949C327.956 602.881 327.809 601.819 327.485 600.787C326.784 598.549 325.426 597.74 323.428 596.699Q312.002 590.87 301.242 583.887L295.443 585.863L295.495 542.477C295.495 534.376 294.992 526.083 295.777 518.021C296.128 514.415 296.811 510.831 298.079 507.429C303.686 492.382 319.98 486.36 333.397 480.209Z"/>
	<path fill="#05123D" d="M548.214 372.966C553.021 375.635 565.702 387.162 568.849 391.826C549.374 404.016 528.693 413.006 508.221 423.274L410.889 472.439C400.487 477.683 377.76 486.382 370.18 493.532C367.275 484.697 363.789 476.112 361.142 467.18L482.766 405.567L525.241 384.35C532.897 380.574 540.836 377.267 548.214 372.966Z"/>
	<path fill="#FEFEFE" d="M259.423 476.145C261.414 477.048 263.616 478.015 265.782 478.354C267.766 478.665 269.543 478.373 271.428 477.742C280.714 474.632 289.108 468.995 297.791 464.568C304.847 460.971 312.49 458.01 319.045 453.543C324.273 462.214 329.356 470.905 333.397 480.209C319.98 486.36 303.686 492.382 298.079 507.429C296.811 510.831 296.128 514.415 295.777 518.021C294.992 526.083 295.495 534.376 295.495 542.477L295.443 585.863C285.137 590.825 275.014 596.207 264.86 601.473C260.799 603.58 256.734 606.081 252.553 607.902C252.459 597.911 251.629 587.179 252.825 577.292C248.631 571.144 226.464 561.356 219.351 557.773C214.368 559.675 209.777 562.317 205.162 564.957C204.439 553.455 204.743 541.878 204.901 530.361C217.755 525.21 232.06 518.712 242.714 509.814C253.885 500.485 258.098 490.361 259.423 476.145Z"/>
	<path fill="#758FF0" d="M599.066 118.784C607.09 121.376 615.273 125.097 619.891 132.458C621.332 135.036 621.728 136.808 621.972 139.72C623.907 162.844 622.224 186.328 622.045 209.5L622.016 243.522C622.024 254.359 623.283 266.869 620.072 277.325C617.23 286.579 593.515 296.885 584.871 301.221C584.37 301.473 583.84 301.795 583.298 301.924C583.969 302.96 584.608 304.049 585.331 305.048C589.911 320.513 595.184 335.969 599.2 351.577C601.532 360.97 603.66 370.059 606.993 379.186C608.269 384.335 610.292 389.375 612.06 394.377C611.563 395.119 611.116 395.833 610.522 396.499C613.848 406.391 616.43 416.509 619.874 426.362C620.488 427.346 621.103 428.315 621.651 429.339C619.84 430.288 617.992 431.43 616.108 432.207C614.523 431.282 612.793 430.685 611.243 429.665C603.332 424.463 596.455 416.489 589.519 410.032C586.987 407.675 583.989 405.712 581.659 403.19C581.463 402.734 581.626 402.977 581.025 402.584L580.589 402.648C576.639 399.397 571.856 395.971 568.849 391.826C565.702 387.162 553.021 375.635 548.214 372.966C540.836 377.267 532.897 380.574 525.241 384.35L482.766 405.567L361.142 467.18C363.789 476.112 367.275 484.697 370.18 493.532C368.834 495.683 366.7 496.249 364.303 496.836C363.582 497.012 362.917 497.115 362.177 497.144L360.791 495.279C351.613 490.443 341.416 486.947 333.397 480.209C329.356 470.905 324.273 462.214 319.045 453.543C312.49 458.01 304.847 460.971 297.791 464.568C289.108 468.995 280.714 474.632 271.428 477.742C269.543 478.373 267.766 478.665 265.782 478.354C263.616 478.015 261.414 477.048 259.423 476.145C258.458 468.482 258.855 460.331 258.843 452.599L258.966 410.52C258.993 403.047 259.565 395.076 258.281 387.711C257.614 383.88 256.488 381.143 254.243 377.982Q254.461 376.463 254.816 374.97Q255.171 373.477 255.661 372.022Q256.151 370.568 256.771 369.164Q257.391 367.76 258.137 366.419C260.985 361.209 264.848 357.482 269.696 354.126C277.351 348.827 286.128 345.063 294.375 340.772Q312.01 331.433 329.535 321.888C341.959 315.147 354.918 305.922 367.596 300.248C370.483 298.956 374 298.47 377.058 297.566C382.584 300.96 386.11 304.824 389.048 310.582C390.837 307.919 392.803 305.812 395.125 303.631C395.649 301.272 396.147 299.14 397.24 296.958C397.65 289.31 397.421 281.544 397.445 273.882Q397.571 255.505 397.445 237.128C398.219 236.62 398.504 236.399 398.872 235.524C400.585 231.448 403.977 224.722 407.508 222.046C413.244 217.699 420.799 214.512 427.188 211.115Q446.065 201.129 464.82 190.913L529.815 155.649Q552.09 143.15 574.753 131.369C582.802 127.122 590.815 122.615 599.066 118.784Z"/>
	<path fill="#0F2F91" d="M583.298 301.924C583.969 302.96 584.608 304.049 585.331 305.048C589.911 320.513 595.184 335.969 599.2 351.577C601.532 360.97 603.66 370.059 606.993 379.186C608.269 384.335 610.292 389.375 612.06 394.377C611.563 395.119 611.116 395.833 610.522 396.499C606.691 386.586 581.155 309.563 581.441 304.277C581.51 302.993 582.386 302.678 583.298 301.924Z"/>
	<path fill="#FEFEFE" d="M561.882 220.442C563.669 226.296 562.605 252.483 562.632 260.297C549.773 266.355 537.254 273.153 524.696 279.808C522.79 277.253 524.053 245.353 524.173 240.183Q543.253 230.743 561.882 220.442Z"/>
	<path fill="#FEFEFE" d="M481.794 262.503C483.817 269.705 482.503 293.314 482.471 302.148C470.107 309.033 457.244 315.197 444.593 321.539C442.585 315.629 444.272 289.855 444.508 282.004Q462.945 271.859 481.794 262.503Z"/>
	<path fill="#FEFEFE" d="M601.487 199.505C601.535 199.552 601.592 199.591 601.631 199.645C603.558 202.305 602.526 234.786 602.514 239.957C590.085 246.392 577.478 252.472 565.111 259.03C562.752 254.793 563.999 225.834 564.21 219.172C576.913 213.133 589.191 206.32 601.487 199.505Z"/>
	<path fill="#FEFEFE" d="M521.875 241.46C523.741 248.119 522.562 272.604 522.549 281.028L484.234 301.146C482.483 290.404 483.543 272.707 484.02 261.451Q502.769 251.118 521.875 241.46Z"/>
	<defs>
		<linearGradient id="gradient_3" gradientUnits="userSpaceOnUse" x1="521.2644" y1="437.2464" x2="499.25354" y2="126.53054">
			<stop offset="0" stop-color="#0925A8"/>
			<stop offset="1" stop-color="#2656BF"/>
		</linearGradient>
	</defs>
	<path fill="url(#gradient_3)" d="M599.066 118.784C607.09 121.376 615.273 125.097 619.891 132.458C615.286 132.469 612.349 133.106 608.127 135.004C595.865 140.516 584.323 147.633 572.407 153.85Q519.529 181.245 467.22 209.714Q456.741 215.37 446.203 220.917C438.528 224.921 429.565 228.442 423.364 234.651C419.706 238.314 418.217 243.308 417.477 248.316C415.433 262.161 416.797 280.415 416.759 294.764C416.694 319.07 415.964 343.494 416.345 367.785C416.403 371.429 416.526 376.843 419.394 379.462C421.095 381.014 423.367 381.596 425.631 381.435C428.158 381.254 430.753 380.053 433.009 378.934C439.202 375.863 444.859 371.743 450.951 368.473C467.165 359.771 483.71 351.601 500.077 343.184C509.355 338.412 518.535 332.925 528.094 328.773C543.307 344.6 607.279 420.812 619.874 426.362C620.488 427.346 621.103 428.315 621.651 429.339C619.84 430.288 617.992 431.43 616.108 432.207C614.523 431.282 612.793 430.685 611.243 429.665C603.332 424.463 596.455 416.489 589.519 410.032C586.987 407.675 583.989 405.712 581.659 403.19C581.463 402.734 581.626 402.977 581.025 402.584L580.589 402.648C576.639 399.397 571.856 395.971 568.849 391.826C565.702 387.162 553.021 375.635 548.214 372.966C537.609 366.122 522.862 349.607 513.648 340.387C505.261 343.982 497.379 348.921 489.298 353.161L450.52 373.108C443.913 376.563 430.862 384.923 424.032 385.621C416.972 386.343 406.727 382.108 401.536 377.405C399.898 375.921 398.356 374.001 397.872 371.794C396.476 365.43 397.335 357.507 397.355 350.96C397.409 333.319 398.361 315.135 397.281 297.557L397.24 296.958C397.65 289.31 397.421 281.544 397.445 273.882Q397.571 255.505 397.445 237.128C398.219 236.62 398.504 236.399 398.872 235.524C400.585 231.448 403.977 224.722 407.508 222.046C413.244 217.699 420.799 214.512 427.188 211.115Q446.065 201.129 464.82 190.913L529.815 155.649Q552.09 143.15 574.753 131.369C582.802 127.122 590.815 122.615 599.066 118.784Z"/>
	<path fill="#FEFEFE" d="M397.24 296.958L397.281 297.557C398.361 315.135 397.409 333.319 397.355 350.96C397.335 357.507 396.476 365.43 397.872 371.794C398.356 374.001 399.898 375.921 401.536 377.405C406.727 382.108 416.972 386.343 424.032 385.621C430.862 384.923 443.913 376.563 450.52 373.108L489.298 353.161C497.379 348.921 505.261 343.982 513.648 340.387C522.862 349.607 537.609 366.122 548.214 372.966C540.836 377.267 532.897 380.574 525.241 384.35L482.766 405.567L361.142 467.18C357.309 457.257 354.609 446.903 351.716 436.676C360.244 430.791 370.405 427.65 377.995 420.366C382.469 416.073 386.114 410.392 387.751 404.382C389.708 397.199 389.307 388.691 389.49 381.268Q390.181 356.292 389.897 331.309C389.806 324.713 388.802 317.936 389.016 311.387L389.048 310.582C390.837 307.919 392.803 305.812 395.125 303.631C395.649 301.272 396.147 299.14 397.24 296.958Z"/>
	<path fill="#1EDFDC" d="M377.058 297.566C382.584 300.96 386.11 304.824 389.048 310.582L389.016 311.387C388.802 317.936 389.806 324.713 389.897 331.309Q390.181 356.292 389.49 381.268C389.307 388.691 389.708 397.199 387.751 404.382C386.114 410.392 382.469 416.073 377.995 420.366C370.405 427.65 360.244 430.791 351.716 436.676C354.609 446.903 357.309 457.257 361.142 467.18C363.789 476.112 367.275 484.697 370.18 493.532C368.834 495.683 366.7 496.249 364.303 496.836C363.582 497.012 362.917 497.115 362.177 497.144L360.791 495.279C351.613 490.443 341.416 486.947 333.397 480.209C329.356 470.905 324.273 462.214 319.045 453.543C312.49 458.01 304.847 460.971 297.791 464.568C289.108 468.995 280.714 474.632 271.428 477.742C269.543 478.373 267.766 478.665 265.782 478.354C263.616 478.015 261.414 477.048 259.423 476.145C258.458 468.482 258.855 460.331 258.843 452.599L258.966 410.52C258.993 403.047 259.565 395.076 258.281 387.711C257.614 383.88 256.488 381.143 254.243 377.982Q254.461 376.463 254.816 374.97Q255.171 373.477 255.661 372.022Q256.151 370.568 256.771 369.164Q257.391 367.76 258.137 366.419C260.985 361.209 264.848 357.482 269.696 354.126C277.351 348.827 286.128 345.063 294.375 340.772Q312.01 331.433 329.535 321.888C341.959 315.147 354.918 305.922 367.596 300.248C370.483 298.956 374 298.47 377.058 297.566Z"/>
	<path fill="#059A5A" d="M319.045 453.543C323.749 449.72 329.234 447.501 334.708 445.023Q343.344 460.369 351.495 475.978C354.79 482.278 358.352 488.588 360.791 495.279C351.613 490.443 341.416 486.947 333.397 480.209C329.356 470.905 324.273 462.214 319.045 453.543Z"/>
	<path fill="#FEFEFE" d="M296.2 352.793C305.937 356.112 315.54 360.301 325.135 364.037C338.423 369.211 351.8 374.114 365.02 379.464C353.907 391.793 341.769 403.377 330.099 415.187L296.503 449.161C296.392 417.058 296.884 384.885 296.2 352.793Z"/>
	<defs>
		<linearGradient id="gradient_4" gradientUnits="userSpaceOnUse" x1="685.06824" y1="732.7572" x2="583.86249" y2="319.20074">
			<stop offset="0" stop-color="#03153E"/>
			<stop offset="1" stop-color="#143280"/>
		</linearGradient>
	</defs>
	<path fill="url(#gradient_4)" d="M865.174 208.751C876.715 213.692 886.806 221.376 898.058 226.89C898.129 226.925 898.199 226.962 898.27 226.997C904.665 230.235 911.465 233.242 917.03 237.825C922.948 242.767 925.503 248.066 926.203 255.737C927.26 267.338 926.218 279.393 926.282 291.062L926.468 373.239L926.474 458.098C926.474 472.269 927.388 487.034 926.249 501.132C925.831 506.304 924.513 512.298 921.124 516.35C913.661 525.275 890.242 534.833 879.061 540.393L828.81 565.696C820.857 569.723 812.098 573.416 804.547 578.08C804.548 584.093 804.766 590.193 804.508 596.195C800.373 599.229 794.854 601.323 790.246 603.63L760.679 618.429C764.624 620.096 775.338 623.601 777.164 627.443C778.878 631.806 779.809 636.272 780.67 640.866C771.892 647.022 762.079 650.99 752.47 655.599C741.372 660.922 730.037 666.798 719.31 672.837C718.946 677.581 717.336 686.361 719.843 690.443Q715.889 692.247 711.962 694.11Q701.09 699.491 690.127 704.682C686.412 706.422 682.339 707.929 678.755 709.871C670.922 709.159 656.035 698.011 647.892 694.305C647.662 701.45 647.161 760.099 646.676 761.186C635.585 754.078 623.824 747.548 612.359 741.044C605.313 737.047 598.131 733.451 591.719 728.448C590.777 728.694 590.564 728.5 590.068 729.412C587.132 734.805 587.718 748.483 588.044 754.633L593.99 758.555C594.441 759.362 594.935 760.123 595.195 761.014C572.245 773.143 548.778 784.118 525.356 795.285C514.541 800.442 503.484 807.175 491.928 810.366L490.057 808.606C482.349 802.675 473.252 798.583 464.745 793.935C455.074 788.651 445.529 783.104 435.947 777.659C427.929 773.104 419.729 768.738 412.133 763.5C410.694 770.304 411.023 777.618 411.046 784.549C390.035 794.662 370.115 806.884 348.823 816.479C348.675 816.271 348.519 816.069 348.38 815.854C347.161 813.963 347.251 812.057 347.203 809.89C346.712 787.695 347.261 765.43 347.1 743.223L346.106 608.644L345.998 569.085C345.872 558.726 344.668 544.742 346.802 534.77C348.014 529.105 351.43 521.517 356.036 517.887C362.196 513.032 370.446 510.17 377.489 506.772C384.338 503.469 391.06 499.855 397.827 496.384L526.974 431.013L564.254 412.258C569.652 409.535 576.098 407.033 581.009 403.649C581.228 403.498 581.443 403.343 581.659 403.19C583.989 405.712 586.987 407.675 589.519 410.032C596.455 416.489 603.332 424.463 611.243 429.665C612.793 430.685 614.523 431.282 616.108 432.207C617.992 431.43 619.84 430.288 621.651 429.339C621.103 428.315 620.488 427.346 619.874 426.362C616.43 416.509 613.848 406.391 610.522 396.499C611.116 395.833 611.563 395.119 612.06 394.377C610.292 389.375 608.269 384.335 606.993 379.186C603.66 370.059 601.532 360.97 599.2 351.577Q648.87 324.506 699.383 299.045C704.487 301.041 709.065 301.802 714.531 301.534C726.654 296.972 737.013 289.563 748.817 284.66C747.345 289.362 747.208 293.659 749.537 298.133C750.574 300.126 751.917 301.663 753.507 303.223C759.35 305.249 766.444 307.807 772.526 305.182C775.648 304.273 778.656 303.049 781.19 300.959C786.958 296.202 788.165 288.647 788.813 281.644C789.004 275.797 788.851 269.985 788.68 264.14C798.791 259.492 812.516 254.209 821.283 247.642C829.591 241.42 831.548 233.449 832.845 223.776C843.61 218.561 853.858 212.759 865.174 208.751Z"/>
	<path fill="#39B5F4" d="M460.376 506.613C465.217 508.281 469.549 511.077 473.91 513.709C477.885 516.146 481.228 518.596 484.401 522.034C494.116 532.562 502.08 545.302 510.868 556.651C514.453 561.282 522.065 568.791 524.419 573.512L524.04 573.71L521.629 572.532C517.029 569.697 511.96 566.98 507.881 563.43C501.64 558 496.625 550.692 491.256 544.382C480.697 531.974 469.437 520.211 460.376 506.613Z"/>
	<path fill="#39B5F4" d="M727.144 376.071L748.103 388.336C737.8 392.108 724.68 401.601 714.465 403.223L712.532 402.223C707.362 398.2 700.388 395.892 694.38 393.391C704.237 387.054 715.982 379.769 727.144 376.071Z"/>
	<path fill="#39B5F4" d="M749.929 368.472L748.689 366.951C749.342 365.548 778.565 350.116 782.317 348.273C788.885 351.53 796.208 354.658 801.582 359.742C789.57 365.389 777.916 371.945 765.79 377.281C762.919 376.033 760.084 374.762 757.282 373.364C755.6 371.471 752.275 369.439 749.929 368.472Z"/>
	<path fill="#39B5F4" d="M409.454 534.517C416.521 534.584 424.78 540.881 430.623 544.394C419.438 550.713 408.229 556.593 396.674 562.201C388.78 559.418 381.396 555.029 374.054 551.065Q382.531 546.172 391.397 542.027Q400.263 537.883 409.454 534.517Z"/>
	<path fill="#39B5F4" d="M500.786 487.786C507.982 490.656 514.464 494.703 521.353 498.171C508.474 504.462 496.045 512.245 483.017 518.068C480.422 516.564 477.56 514.533 474.753 513.523C471.696 510.722 466.845 508.569 463.215 506.498C475.666 500.088 487.853 493.208 500.786 487.786Z"/>
	<path fill="#39B5F4" d="M693.504 393.92C699.742 396.887 706.05 399.824 712.532 402.223L714.465 403.223C715.12 421.19 714.589 439.38 714.534 457.365C714.502 467.745 714.179 477.997 715.485 488.325C708.867 479.934 700.925 472.387 693.492 464.717C693.335 441.085 693.143 417.558 693.504 393.92Z"/>
	<path fill="#39B5F4" d="M481.481 608.998C489.721 611.615 500.898 616.922 507.103 622.821C500.624 627.068 493.322 630.324 486.404 633.821Q469.254 642.567 451.936 650.974C445.83 653.811 439.828 656.902 433.804 659.91C434.495 650.877 434.474 641.764 434.45 632.71C449.881 624.294 465.681 616.685 481.481 608.998Z"/>
	<path fill="#758FF0" d="M507.383 565.146L520.407 573.129C524.611 575.85 528.938 578.475 533.035 581.35C533.061 585.73 533.164 589.909 533.941 594.23C534.165 604.833 534.024 615.461 534.007 626.067C533.997 633.032 534.285 640.168 533.85 647.111L533.259 649.095C530.747 651.129 527.183 652.409 524.257 653.796L508.592 641.65C508.491 629.326 508.02 617.008 508.01 604.68C507.999 591.439 508.466 578.37 507.383 565.146Z"/>
	<path fill="#FEFEFE" d="M589.952 685.477Q590.083 698.834 589.948 712.192C589.925 716.572 589.369 721.789 590.19 726.047C590.428 727.285 590.859 727.582 591.719 728.448C590.777 728.694 590.564 728.5 590.068 729.412C587.132 734.805 587.718 748.483 588.044 754.633C573.946 749.223 560.895 739.605 548.049 731.761C540.253 727 532.058 722.891 523.952 718.687L562.032 699.154C571.188 694.412 580.331 689.224 589.952 685.477Z"/>
	<path fill="#39B5F4" d="M864.576 305.248L886.251 316.35C878.554 320.088 870.908 324.023 863.119 327.562C858.929 329.465 853.545 331.035 849.782 333.569C845.2 339.369 842.193 346.439 838.631 352.887C833.733 361.754 828.285 370.31 823.117 379.02C817.447 388.575 812.323 400.076 804.407 407.949L805.025 361.674C812.634 349.485 819.193 336.643 826.893 324.538C833.691 317.366 854.67 309.135 864.576 305.248Z"/>
	<path fill="#758FF0" d="M746.166 366.992L749.929 368.472C752.275 369.439 755.6 371.471 757.282 373.364C759.57 375.816 763.781 377.484 766.771 379.049L767.447 525.43L750.018 511.82L750.485 434.007C750.55 418.866 751.118 403.406 750 388.304C749.103 386.867 748 386.631 746.493 385.908Q746.46 376.448 746.166 366.992Z"/>
	<path fill="#456EE4" d="M373.106 551.646C380.697 554.615 389.208 559.899 397.223 563.348Q397.597 608.415 397.3 653.483C397.227 672.649 397.494 691.855 397.116 711.014C388.616 705.629 380.416 700.189 372.986 693.344L373.106 551.646Z"/>
	<path fill="#0F2F91" d="M589.487 661.024C608.702 672.526 628.905 682.379 647.892 694.305C647.662 701.45 647.161 760.099 646.676 761.186C635.585 754.078 623.824 747.548 612.359 741.044C605.313 737.047 598.131 733.451 591.719 728.448C590.859 727.582 590.428 727.285 590.19 726.047C589.369 721.789 589.925 716.572 589.948 712.192Q590.083 698.834 589.952 685.477C590.179 677.327 588.988 669.136 589.487 661.024Z"/>
	<path fill="#39B5F4" d="M621.651 429.339C626.168 426.974 630.655 424.503 635.343 422.494C642.818 425.917 649.926 430.013 657.033 434.133C646.615 439.785 635.701 444.602 625.364 450.35Q624.906 498.628 625.098 546.905C625.139 561.211 626.852 582.569 624.465 596.095C615.473 591.824 607.262 586.466 598.996 580.96L598.934 531.151C598.904 520.484 597.42 508.291 600.035 497.912C602.296 488.943 607.363 479.813 611.358 471.504C614.523 464.923 617.647 457.62 622.017 451.746C612.211 456.404 588.96 466.412 581.601 472.967C576.88 477.172 556.006 523.654 550.52 533.266C544.694 523.523 538.044 514.68 531.181 505.67L531.628 505.079C540.276 493.553 543.739 478.437 551.868 466.54C552.983 464.908 554.54 464.104 556.214 463.142C562.993 459.244 570.33 456.081 577.31 452.53Q596.774 442.493 616.108 432.207C617.992 431.43 619.84 430.288 621.651 429.339Z"/>
	<path fill="#FEFEFE" d="M431.887 545.512C434.339 548.378 432.919 649.682 432.627 661.477C444.988 656.679 456.378 650.086 468.2 644.15C481.312 637.568 494.55 631.613 507.422 624.509Q507.529 641.427 507.066 658.339C496.037 663.401 485.202 669.05 474.296 674.384L398.604 711.805C397.419 676.506 397.868 641.077 397.97 605.757C398.011 591.476 398.372 577.236 397.94 562.955C409.33 557.281 420.418 551.029 431.887 545.512Z"/>
	<path fill="#FEFEFE" d="M581.568 473.976C593.54 467.372 605.984 461.738 617.931 455.032C612.668 465.166 608.185 475.63 603.46 486.018L587.313 520.824C581.475 533.448 574.355 545.772 569.256 558.672C567.287 563.653 568.511 621.987 568.517 631.984C563.729 634.391 537.229 648.53 534.407 648.623C534.221 648.151 533.947 647.606 533.85 647.111C534.285 640.168 533.997 633.032 534.007 626.067C534.024 615.461 534.165 604.833 533.941 594.23C533.164 589.909 533.061 585.73 533.035 581.35C528.938 578.475 524.611 575.85 520.407 573.129L521.629 572.532L524.04 573.71L524.419 573.512C522.065 568.791 514.453 561.282 510.868 556.651C502.08 545.302 494.116 532.562 484.401 522.034C481.228 518.596 477.885 516.146 473.91 513.709L474.753 513.523C477.56 514.533 480.422 516.564 483.017 518.068C496.045 512.245 508.474 504.462 521.353 498.171L523.063 499.102C526.804 500.544 546.394 529.635 550.802 535.145C557.335 523.403 563.082 511.371 568.843 499.242C572.866 490.774 576.775 482.042 581.568 473.976Z"/>
	<path fill="#0F2F91" d="M521.353 498.171L523.063 499.102C509.997 505.057 496.022 511.734 483.898 519.418C493.617 531.57 502.94 544.005 512.819 556.038C519.804 564.546 528.003 572.709 533.895 582L533.941 594.23C533.164 589.909 533.061 585.73 533.035 581.35C528.938 578.475 524.611 575.85 520.407 573.129L521.629 572.532L524.04 573.71L524.419 573.512C522.065 568.791 514.453 561.282 510.868 556.651C502.08 545.302 494.116 532.562 484.401 522.034C481.228 518.596 477.885 516.146 473.91 513.709L474.753 513.523C477.56 514.533 480.422 516.564 483.017 518.068C496.045 512.245 508.474 504.462 521.353 498.171Z"/>
	<path fill="#1EDFDC" d="M508.484 710.406Q516.261 714.465 523.952 718.687C532.058 722.891 540.253 727 548.049 731.761C560.895 739.605 573.946 749.223 588.044 754.633L593.99 758.555C594.441 759.362 594.935 760.123 595.195 761.014C572.245 773.143 548.778 784.118 525.356 795.285C514.541 800.442 503.484 807.175 491.928 810.366L490.057 808.606C482.349 802.675 473.252 798.583 464.745 793.935C455.074 788.651 445.529 783.104 435.947 777.659C427.929 773.104 419.729 768.738 412.133 763.5C419.058 756.982 435.489 750.048 444.479 745.192L508.484 710.406Z"/>
	<path fill="#FEFEFE" d="M593.99 758.555C594.441 759.362 594.935 760.123 595.195 761.014C572.245 773.143 548.778 784.118 525.356 795.285C514.541 800.442 503.484 807.175 491.928 810.366L490.057 808.606C510.8 798.121 531.893 788.251 552.782 778.053C566.377 771.415 579.764 763.72 593.99 758.555Z"/>
	<path fill="#284ACB" d="M865.174 208.751C876.715 213.692 886.806 221.376 898.058 226.89C898.129 226.925 898.199 226.962 898.27 226.997C904.665 230.235 911.465 233.242 917.03 237.825C916.811 237.906 916.593 237.99 916.372 238.067C910.987 239.955 906.58 239.023 899.844 242.215C889.875 246.939 880.477 252.873 870.662 257.91L818.453 285.285C808.381 290.505 798.079 295.33 788.094 300.714C770.059 310.436 752.514 321.095 734.375 330.637Q691.347 353.057 647.976 374.808C638.694 379.567 619.065 387.894 612.06 394.377C610.292 389.375 608.269 384.335 606.993 379.186C603.66 370.059 601.532 360.97 599.2 351.577Q648.87 324.506 699.383 299.045C704.487 301.041 709.065 301.802 714.531 301.534C726.654 296.972 737.013 289.563 748.817 284.66C747.345 289.362 747.208 293.659 749.537 298.133C750.574 300.126 751.917 301.663 753.507 303.223C759.35 305.249 766.444 307.807 772.526 305.182C775.648 304.273 778.656 303.049 781.19 300.959C786.958 296.202 788.165 288.647 788.813 281.644C789.004 275.797 788.851 269.985 788.68 264.14C798.791 259.492 812.516 254.209 821.283 247.642C829.591 241.42 831.548 233.449 832.845 223.776C843.61 218.561 853.858 212.759 865.174 208.751Z"/>
	<path fill="#05123D" d="M865.174 208.751C876.715 213.692 886.806 221.376 898.058 226.89C898.129 226.925 898.199 226.962 898.27 226.997C890.837 231.224 882.874 234.791 875.256 238.714Q847.721 252.963 819.996 266.84C810.006 271.851 799.908 276.516 790.268 282.188C789.687 282.53 789.873 282.414 789.068 282.558L788.813 281.644C789.004 275.797 788.851 269.985 788.68 264.14C798.791 259.492 812.516 254.209 821.283 247.642C829.591 241.42 831.548 233.449 832.845 223.776C843.61 218.561 853.858 212.759 865.174 208.751Z"/>
	<path fill="#05123D" d="M714.531 301.534C726.654 296.972 737.013 289.563 748.817 284.66C747.345 289.362 747.208 293.659 749.537 298.133C750.574 300.126 751.917 301.663 753.507 303.223C727.836 316.041 702.674 329.688 677.19 342.836C664.605 349.33 651.819 355.4 639.177 361.774Q628.467 367.242 617.992 373.147C614.46 375.115 610.713 377.676 606.993 379.186C603.66 370.059 601.532 360.97 599.2 351.577Q648.87 324.506 699.383 299.045C704.487 301.041 709.065 301.802 714.531 301.534Z"/>
	<path fill="#FEFEFE" d="M888.878 317.07L889.208 317.879C884.949 328.539 877.718 338.424 871.936 348.346Q855.381 377.32 838.287 405.979L861.787 429.338C871.191 438.534 888.067 452.37 893.23 464.088C887.393 469.103 879.454 471.837 872.602 475.237Q862.149 480.469 851.871 486.039C839.759 474.051 827.881 461.039 815.377 449.555C812.279 455.026 808.667 460.319 805.999 466.018C799.92 478.999 803.479 494.446 802.645 508.335L795.699 511.986C786.795 516.638 777.645 520.808 768.543 525.057L768.185 442.821Q767.617 410.159 768.151 377.496C773.079 375.561 778.009 373.583 782.738 371.194C789.563 367.747 796.209 363.716 803.352 360.959C803.53 378.417 803.107 395.93 803.066 413.396C809.961 406.07 814.584 396.441 819.659 387.833C825.812 377.396 832.331 367.152 838.372 356.654C842.559 349.378 846.323 341.871 850.74 334.728C863.337 328.781 875.88 322.076 888.878 317.07Z"/>
	<path fill="#FEFEFE" d="M748.316 389.451C750.225 396.521 749.151 410.893 749.153 418.719Q749.169 456.225 748.804 493.73C748.659 505.889 747.346 524.152 748.89 535.622C737.456 540.466 726.569 547.035 715.688 553.003C707.842 546.513 700.874 539.065 693.499 532.064C681.72 520.883 669.865 509.932 658.497 498.318L658.55 576.785C648.002 582.453 637.518 588.321 626.594 593.236C625.865 587.324 626.258 581.171 626.305 575.219L626.406 548.262L626.525 450.736C636.8 445.112 647.597 440.073 658.149 434.973Q687.72 462.091 716.502 490.045Q715.566 447.556 716.018 405.061Q731.949 396.806 748.316 389.451Z"/>
	<path fill="#FEFEFE" d="M743.43 608.199C763.655 600.495 785.132 588.052 804.547 578.08C804.548 584.093 804.766 590.193 804.508 596.195C800.373 599.229 794.854 601.323 790.246 603.63L760.679 618.429C764.624 620.096 775.338 623.601 777.164 627.443C778.878 631.806 779.809 636.272 780.67 640.866C771.892 647.022 762.079 650.99 752.47 655.599C741.372 660.922 730.037 666.798 719.31 672.837C718.946 677.581 717.336 686.361 719.843 690.443Q715.889 692.247 711.962 694.11Q701.09 699.491 690.127 704.682C686.412 706.422 682.339 707.929 678.755 709.871C670.922 709.159 656.035 698.011 647.892 694.305C628.905 682.379 608.702 672.526 589.487 661.024C589.662 656.999 589.215 644.111 591.019 641.387C611.145 629.736 632.289 619.364 653.022 608.839C663.31 603.616 676.623 595.755 687.445 592.349C707.639 585.992 726.372 599.583 743.43 608.199Z"/>
	<path fill="#758FF0" d="M589.487 661.024C589.662 656.999 589.215 644.111 591.019 641.387C594.507 641.441 596.827 642 600.044 643.447C610.415 648.108 620.138 654.978 629.882 660.831C638.806 666.191 648.149 670.99 657.281 675.993C664.384 679.885 671.487 684.2 678.793 687.677Q678.687 698.774 678.755 709.871C670.922 709.159 656.035 698.011 647.892 694.305C628.905 682.379 608.702 672.526 589.487 661.024Z"/>
</svg>
